<?xml version="1.0" encoding="UTF-8" standalone="no"?>
<!-- Created with Inkscape (http://www.inkscape.org/) -->

<svg
   xmlns:dc="http://purl.org/dc/elements/1.1/"
   xmlns:cc="http://creativecommons.org/ns#"
   xmlns:rdf="http://www.w3.org/1999/02/22-rdf-syntax-ns#"
   xmlns:svg="http://www.w3.org/2000/svg"
   xmlns="http://www.w3.org/2000/svg"
   xmlns:sodipodi="http://sodipodi.sourceforge.net/DTD/sodipodi-0.dtd"
   xmlns:inkscape="http://www.inkscape.org/namespaces/inkscape"
   id="svg2"
   version="1.1"
   inkscape:version="0.48.0 r9654"
   width="2979.9213"
   height="2104.7244"
   xml:space="preserve"
   sodipodi:docname="projector_chessboard.svg"><metadata
     id="metadata8"><rdf:RDF><cc:Work
         rdf:about=""><dc:format>image/svg+xml</dc:format><dc:type
           rdf:resource="http://purl.org/dc/dcmitype/StillImage" /><dc:title></dc:title></cc:Work></rdf:RDF></metadata><defs
     id="defs6" /><sodipodi:namedview
     pagecolor="#ffffff"
     bordercolor="#666666"
     borderopacity="1"
     objecttolerance="10"
     gridtolerance="10"
     guidetolerance="10"
     inkscape:pageopacity="0"
     inkscape:pageshadow="2"
     inkscape:window-width="1680"
     inkscape:window-height="994"
     id="namedview4"
     showgrid="false"
     inkscape:zoom="0.13113356"
     inkscape:cx="1489.9607"
     inkscape:cy="1052.3622"
     inkscape:window-x="1022"
     inkscape:window-y="-3"
     inkscape:window-maximized="1"
     inkscape:current-layer="g10" /><g
     id="g10"
     inkscape:groupmode="layer"
     inkscape:label="projector_chessboard"
     transform="matrix(1.25,0,0,-1.25,0,2104.7244)"><g
       id="g3173"><g
         id="g3163"><path
           inkscape:connector-curvature="0"
           id="path14"
           style="fill:#000000;fill-opacity:1;fill-rule:nonzero;stroke:none"
           d="m 1899.211,1303.936 113.387,0 0,-113.383 -113.387,0 0,113.383 z" /><path
           inkscape:connector-curvature="0"
           id="path16"
           style="fill:#000000;fill-opacity:1;fill-rule:nonzero;stroke:none"
           d="m 2012.598,1417.323 113.387,0 0,-113.387 -113.387,0 0,113.387 z" /><path
           inkscape:connector-curvature="0"
           id="path18"
           style="fill:#000000;fill-opacity:1;fill-rule:nonzero;stroke:none"
           d="m 2125.984,1303.936 113.387,0 0,-113.383 -113.387,0 0,113.383 z" /><path
           inkscape:connector-curvature="0"
           id="path20"
           style="fill:#000000;fill-opacity:1;fill-rule:nonzero;stroke:none"
           d="m 2239.371,1417.323 113.387,0 0,-113.387 -113.387,0 0,113.387 z" /><path
           inkscape:connector-curvature="0"
           id="path22"
           style="fill:#000000;fill-opacity:1;fill-rule:nonzero;stroke:none"
           d="m 1899.211,1530.709 113.387,0 0,-113.387 -113.387,0 0,113.387 z" /><path
           inkscape:connector-curvature="0"
           id="path24"
           style="fill:#000000;fill-opacity:1;fill-rule:nonzero;stroke:none"
           d="m 2012.598,1644.096 113.387,0 0,-113.387 -113.387,0 0,113.387 z" /><path
           inkscape:connector-curvature="0"
           id="path26"
           style="fill:#000000;fill-opacity:1;fill-rule:nonzero;stroke:none"
           d="m 2125.984,1530.709 113.387,0 0,-113.387 -113.387,0 0,113.387 z" /><path
           inkscape:connector-curvature="0"
           id="path28"
           style="fill:#000000;fill-opacity:1;fill-rule:nonzero;stroke:none"
           d="m 2239.371,1644.096 113.387,0 0,-113.387 -113.387,0 0,113.387 z" /></g><g
         id="g3121"><path
           inkscape:connector-curvature="0"
           id="path30"
           style="fill:#000000;fill-opacity:1;fill-rule:nonzero;stroke:none"
           d="m 28.348,1190.553 113.383,0 0,-113.387 -113.383,0 0,113.387 z" /><path
           inkscape:connector-curvature="0"
           id="path32"
           style="fill:#000000;fill-opacity:1;fill-rule:nonzero;stroke:none"
           d="m 141.73,1303.936 113.387,0 0,-113.383 -113.387,0 0,113.383 z" /><path
           inkscape:connector-curvature="0"
           id="path34"
           style="fill:#000000;fill-opacity:1;fill-rule:nonzero;stroke:none"
           d="m 255.117,1190.553 113.387,0 0,-113.387 -113.387,0 0,113.387 z" /><path
           inkscape:connector-curvature="0"
           id="path36"
           style="fill:#000000;fill-opacity:1;fill-rule:nonzero;stroke:none"
           d="m 368.504,1303.936 113.387,0 0,-113.383 -113.387,0 0,113.383 z" /><path
           inkscape:connector-curvature="0"
           id="path38"
           style="fill:#000000;fill-opacity:1;fill-rule:nonzero;stroke:none"
           d="m 28.348,1417.323 113.383,0 0,-113.387 -113.383,0 0,113.387 z" /><path
           inkscape:connector-curvature="0"
           id="path40"
           style="fill:#000000;fill-opacity:1;fill-rule:nonzero;stroke:none"
           d="m 141.73,1530.709 113.387,0 0,-113.387 -113.387,0 0,113.387 z" /><path
           inkscape:connector-curvature="0"
           id="path42"
           style="fill:#000000;fill-opacity:1;fill-rule:nonzero;stroke:none"
           d="m 255.117,1417.323 113.387,0 0,-113.387 -113.387,0 0,113.387 z" /><path
           inkscape:connector-curvature="0"
           id="path44"
           style="fill:#000000;fill-opacity:1;fill-rule:nonzero;stroke:none"
           d="m 368.504,1530.709 113.387,0 0,-113.387 -113.387,0 0,113.387 z" /><path
           inkscape:connector-curvature="0"
           id="path46"
           style="fill:#000000;fill-opacity:1;fill-rule:nonzero;stroke:none"
           d="m 28.348,1644.096 113.383,0 0,-113.387 -113.383,0 0,113.387 z" /><path
           inkscape:connector-curvature="0"
           id="path48"
           style="fill:#000000;fill-opacity:1;fill-rule:nonzero;stroke:none"
           d="m 255.117,1644.096 113.387,0 0,-113.387 -113.387,0 0,113.387 z" /></g><g
         id="g3147"><path
           inkscape:connector-curvature="0"
           id="path50"
           style="fill:#000000;fill-opacity:1;fill-rule:nonzero;stroke:none"
           d="m 1899.211,141.733 113.387,0 0,-113.387 -113.387,0 0,113.387 z" /><path
           inkscape:connector-curvature="0"
           id="path52"
           style="fill:#000000;fill-opacity:1;fill-rule:nonzero;stroke:none"
           d="m 2012.598,255.119 113.387,0 0,-113.387 -113.387,0 0,113.387 z" /><path
           inkscape:connector-curvature="0"
           id="path54"
           style="fill:#000000;fill-opacity:1;fill-rule:nonzero;stroke:none"
           d="m 2125.984,141.733 113.387,0 0,-113.387 -113.387,0 0,113.387 z" /><path
           inkscape:connector-curvature="0"
           id="path56"
           style="fill:#000000;fill-opacity:1;fill-rule:nonzero;stroke:none"
           d="m 2239.371,255.119 113.387,0 0,-113.387 -113.387,0 0,113.387 z" /><path
           inkscape:connector-curvature="0"
           id="path58"
           style="fill:#000000;fill-opacity:1;fill-rule:nonzero;stroke:none"
           d="m 1899.211,368.502 113.387,0 0,-113.383 -113.387,0 0,113.383 z" /><path
           inkscape:connector-curvature="0"
           id="path60"
           style="fill:#000000;fill-opacity:1;fill-rule:nonzero;stroke:none"
           d="m 2012.598,481.889 113.387,0 0,-113.387 -113.387,0 0,113.387 z" /><path
           inkscape:connector-curvature="0"
           id="path62"
           style="fill:#000000;fill-opacity:1;fill-rule:nonzero;stroke:none"
           d="m 2125.984,368.502 113.387,0 0,-113.383 -113.387,0 0,113.383 z" /><path
           inkscape:connector-curvature="0"
           id="path64"
           style="fill:#000000;fill-opacity:1;fill-rule:nonzero;stroke:none"
           d="m 2239.371,481.889 113.387,0 0,-113.387 -113.387,0 0,113.387 z" /><path
           inkscape:connector-curvature="0"
           id="path66"
           style="fill:#000000;fill-opacity:1;fill-rule:nonzero;stroke:none"
           d="m 1899.211,595.276 113.387,0 0,-113.387 -113.387,0 0,113.387 z" /><path
           inkscape:connector-curvature="0"
           id="path68"
           style="fill:#000000;fill-opacity:1;fill-rule:nonzero;stroke:none"
           d="m 2012.598,708.662 113.387,0 0,-113.387 -113.387,0 0,113.387 z" /><path
           inkscape:connector-curvature="0"
           id="path70"
           style="fill:#000000;fill-opacity:1;fill-rule:nonzero;stroke:none"
           d="m 2125.984,595.276 113.387,0 0,-113.387 -113.387,0 0,113.387 z" /><path
           inkscape:connector-curvature="0"
           id="path72"
           style="fill:#000000;fill-opacity:1;fill-rule:nonzero;stroke:none"
           d="m 2239.371,708.662 113.387,0 0,-113.387 -113.387,0 0,113.387 z" /><path
           inkscape:connector-curvature="0"
           id="path74"
           style="fill:#000000;fill-opacity:1;fill-rule:nonzero;stroke:none"
           d="m 1899.211,822.049 113.387,0 0,-113.387 -113.387,0 0,113.387 z" /><path
           inkscape:connector-curvature="0"
           id="path76"
           style="fill:#000000;fill-opacity:1;fill-rule:nonzero;stroke:none"
           d="m 2125.984,822.049 113.387,0 0,-113.387 -113.387,0 0,113.387 z" /></g><g
         id="g3133"><path
           inkscape:connector-curvature="0"
           id="path78"
           style="fill:#000000;fill-opacity:1;fill-rule:nonzero;stroke:none"
           d="m 28.348,141.733 113.383,0 0,-113.387 -113.383,0 0,113.387 z" /><path
           inkscape:connector-curvature="0"
           id="path80"
           style="fill:#000000;fill-opacity:1;fill-rule:nonzero;stroke:none"
           d="m 141.73,255.119 113.387,0 0,-113.387 -113.387,0 0,113.387 z" /><path
           inkscape:connector-curvature="0"
           id="path82"
           style="fill:#000000;fill-opacity:1;fill-rule:nonzero;stroke:none"
           d="m 255.117,141.733 113.387,0 0,-113.387 -113.387,0 0,113.387 z" /><path
           inkscape:connector-curvature="0"
           id="path84"
           style="fill:#000000;fill-opacity:1;fill-rule:nonzero;stroke:none"
           d="m 368.504,255.119 113.387,0 0,-113.387 -113.387,0 0,113.387 z" /><path
           inkscape:connector-curvature="0"
           id="path86"
           style="fill:#000000;fill-opacity:1;fill-rule:nonzero;stroke:none"
           d="m 28.348,368.506 113.383,0 0,-113.387 -113.383,0 0,113.387 z" /><path
           inkscape:connector-curvature="0"
           id="path88"
           style="fill:#000000;fill-opacity:1;fill-rule:nonzero;stroke:none"
           d="m 141.73,481.889 113.387,0 0,-113.387 -113.387,0 0,113.387 z" /><path
           inkscape:connector-curvature="0"
           id="path90"
           style="fill:#000000;fill-opacity:1;fill-rule:nonzero;stroke:none"
           d="m 255.117,368.506 113.387,0 0,-113.387 -113.387,0 0,113.387 z" /><path
           inkscape:connector-curvature="0"
           id="path92"
           style="fill:#000000;fill-opacity:1;fill-rule:nonzero;stroke:none"
           d="m 368.504,481.889 113.387,0 0,-113.387 -113.387,0 0,113.387 z" /><path
           inkscape:connector-curvature="0"
           id="path94"
           style="fill:#000000;fill-opacity:1;fill-rule:nonzero;stroke:none"
           d="m 28.348,595.276 113.383,0 0,-113.387 -113.383,0 0,113.387 z" /><path
           inkscape:connector-curvature="0"
           id="path96"
           style="fill:#000000;fill-opacity:1;fill-rule:nonzero;stroke:none"
           d="m 141.73,708.662 113.387,0 0,-113.387 -113.387,0 0,113.387 z" /><path
           inkscape:connector-curvature="0"
           id="path98"
           style="fill:#000000;fill-opacity:1;fill-rule:nonzero;stroke:none"
           d="m 255.117,595.276 113.387,0 0,-113.387 -113.387,0 0,113.387 z" /><path
           inkscape:connector-curvature="0"
           id="path100"
           style="fill:#000000;fill-opacity:1;fill-rule:nonzero;stroke:none"
           d="m 368.504,708.662 113.387,0 0,-113.387 -113.387,0 0,113.387 z" /></g></g></g></svg>